# xmcd CD database file
#
# Track frame offsets:
#	150
#	27225
#	45038
#	61499
#	81527
#	100359
#	122016
#	145765
#	164607
#	180481
#	196794
#	211712
#	232388
#	250433
#	268833
#	283931
#	293444
#	319319
#
# Disc length: 4506 seconds
#
# Revision: 0
# Processed by: cddbd v1.5.2PL0 Copyright (c) Steve Scherf et al.
# Submitted via: CDex 1.51
#
DISCID=0f119812
DTITLE=Amy Grant - Time Again- Amy Grant Live
DYEAR=2006
DGENRE=Country
TTITLE0=Lead Me On
TTITLE1=Good For Me
TTITLE2=Stay For A While
TTITLE3=Takes A Little Time
TTITLE4=Simple Things
TTITLE5=Saved By Love
TTITLE6=Out In The Open
TTITLE7=Ask Me
TTITLE8=After The Fire
TTITLE9=In A Little While
TTITLE10=Thy Word
TTITLE11=Oh How The Years Go By
TTITLE12=Baby Baby
TTITLE13=Eye To Eye
TTITLE14=Every Heartbeat
TTITLE15=Believe
TTITLE16=I Will Remember You
TTITLE17=In A Little While
EXTD=YEAR: 2006
EXTT0=
EXTT1=
EXTT2=
EXTT3=
EXTT4=
EXTT5=
EXTT6=
EXTT7=
EXTT8=
EXTT9=
EXTT10=
EXTT11=
EXTT12=
EXTT13=
EXTT14=
EXTT15=
EXTT16=
EXTT17=
PLAYORDER=
